# xmcd
#
# Track frame offsets: 
#        150
#        13653
#        32660
#        47332
#        69485
#        92091
#        106236
#        124927
#        148283
#        169084
#        191632
#        205880
#        223793
#        242538
#
# Disc length: 3399 seconds
#
# Revision: 0
# Processed by: cddbd v1.5.2PL0 Copyright (c) Steve Scherf et al.
# Submitted via: ExactAudioCopy v1.0b4
#
DISCID=c70d450e
DTITLE=Little Jonny And The Giants - We Got It Goin' On
DYEAR=2013
DGENRE=Blues
TTITLE0=I Didn't Know
TTITLE1=I Want You Bad
TTITLE2=Not No More
TTITLE3=Let's Rock
TTITLE4=Worried
TTITLE5=Hey Little Lee
TTITLE6=Kiddio
TTITLE7=No Other Man
TTITLE8=Mellow Down Easy
TTITLE9=I Wish You Would Love Me
TTITLE10=Trace Of You
TTITLE11=It's Too Late Brother
TTITLE12=Stop Puttin' Me On
TTITLE13=Aki Daki Stomp
EXTD=
EXTT0=
EXTT1=
EXTT2=
EXTT3=
EXTT4=
EXTT5=
EXTT6=
EXTT7=
EXTT8=
EXTT9=
EXTT10=
EXTT11=
EXTT12=
EXTT13=
PLAYORDER=
